<svg xmlns="http://www.w3.org/2000/svg" viewBox="0 0 126.64 96"><path d="M81.15 0a73.74 73.74 0 0 0-3.36 6.8 97.87 97.87 0 0 0-29 0A67.87 67.87 0 0 0 45.45 0 105.55 105.55 0 0 0 19.3 8.06C2.78 32.53-1.7 56.37.53 79.89c9.67 7.14 20.5 12.6 32.05 16.08 2.6-3.48 4.9-7.2 6.87-11.06a69.45 69.45 0 0 1-10.8-5.15c.9-.66 1.78-1.34 2.64-2a75.26 75.26 0 0 0 64.08 0c.86.71 1.74 1.4 2.65 2a68.77 68.77 0 0 1-10.83 5.18A76.9 76.9 0 0 0 94.06 96a104.99 104.99 0 0 0 32.05-16.06c2.62-27.28-4.5-50.92-18.82-71.86A104.2 104.2 0 0 0 81.18.05L81.15 0ZM42.28 65.41c-6.24 0-11.42-5.65-11.42-12.65s4.98-12.68 11.4-12.68 11.51 5.71 11.41 12.68c-.1 6.97-5.03 12.65-11.39 12.65Zm42.08 0c-6.27 0-11.4-5.65-11.4-12.65s4.98-12.68 11.4-12.68 11.49 5.71 11.39 12.68c-.1 6.97-5.03 12.65-11.4 12.65Z"/></svg>