<svg xmlns="http://www.w3.org/2000/svg" width="128" height="103" fill="none"><path fill="#fff" d="M58.1 13.8H15.3c-.8 0-1.5.7-1.5 1.6v59.4l17.5-16.9c4.1-4 10.7-4 14.8 0l8.7 8.4 14.4-18.5 4 3.3-15 23.1a7 7 0 0 0 0 7.4L70.9 103h-56C6.7 102.8 0 96 0 87.6V15.4C0 6.9 6.9 0 15.3 0h51.5L58 13.8Z"/><path fill="#fff" d="M112.7 0C121 0 128 6.9 128 15.4v72.2c0 8.4-6.7 15.2-15 15.4H84.9L70.1 78.1 85.6 54a7 7 0 0 0-1.3-9.1l-7.7-6.6a13 13 0 0 1 20.3.3l17.3 22.3V15.4c0-.9-.7-1.6-1.5-1.6H72.3L80.9 0h31.8Z"/><path fill="#fff" fill-rule="evenodd" d="M32 20a12 12 0 1 1 0 24 12 12 0 0 1 0-24Zm0 15.5c-.5 0-1 .2-1.3.6-.4.3-.6.8-.5 1.3 0 .5.1 1 .5 1.3.3.3.8.5 1.3.5.3 0 .6 0 .9-.2l.7-.7.2-1a1.8 1.8 0 0 0-1.8-1.8Zm-1.5-.7h3l.3-9.4h-3.6l.3 9.4Z" clip-rule="evenodd"/><path fill="#fff" d="M52.2 25.1a6 6 0 0 0 1.2 7.8l20.4 17.5.6.6-15.3 23.8a6 6 0 0 0 0 6.3L72 103h-2.4L57.3 82.1a8 8 0 0 1 .1-8.4l14.4-22.4-19.7-17a8 8 0 0 1-1.6-10.2L65.6 0H68L52.2 25.1Z"/><path fill="#fff" d="m65.1 27.1 19.8 17a8 8 0 0 1 1.5 10.4L71.2 78.1 86 103h-2.3L68.9 78.1l15.8-24.7a6 6 0 0 0-1.1-7.8l-21-18L79.7 0H82l-17 27.1Z"/></svg>