<svg xmlns="http://www.w3.org/2000/svg" width="256" height="234"><svg xmlns="http://www.w3.org/2000/svg" width="256" height="234" fill="none" viewBox="0 0 256 234"><path fill="#fff" d="M27.5 145.2a41 41 0 0 0 41 40.8h153.1l-7.7 29a25.6 25.6 0 0 1-31.4 18.1L19 189.4A25.6 25.6 0 0 1 .9 158l26.6-99.3v86.4ZM75.2 40.5c0-7.8 8.4-12.7 15.2-8.9L119.7 48c7 4 7 14 0 17.9L90.4 82a10.2 10.2 0 0 1-15.2-9V40.6Z"/><path fill="#fff" fill-rule="evenodd" d="M230.4 0A25.6 25.6 0 0 1 256 25.6v120a25.6 25.6 0 0 1-25 25.6H67.3a25.6 25.6 0 0 1-25-25.5V25.6A25.6 25.6 0 0 1 67.8 0h162.6ZM67.8 23a2.6 2.6 0 0 0-2.5 2.6v98.7l29.2-28a18 18 0 0 1 24.8 0l14.5 13.9 36-46a21.8 21.8 0 0 1 34.2 0l29 37V25.6c0-1.5-1.2-2.6-2.6-2.6H67.8Z" clip-rule="evenodd"/></svg><style>@media (prefers-color-scheme:light){:root{filter:contrast(1) brightness(.1)}}@media (prefers-color-scheme:dark){:root{filter:none}}</style></svg>