<svg xmlns="http://www.w3.org/2000/svg" width="129" height="103" fill="none"><path fill="#fff" d="M20 24.4c0-4.7 5-7.7 9.1-5.4l17.5 9.8a6.2 6.2 0 0 1 0 10.8l-17.5 9.8c-4 2.3-9.1-.7-9.1-5.4V24.4Z"/><path fill="#fff" fill-rule="evenodd" d="M113 0c8.4 0 15.2 6.9 15.2 15.4v72.2c0 8.4-6.6 15.2-14.9 15.4H15.2c-8.3-.2-15-7-15-15.4V15.4C.2 6.9 7.1 0 15.6 0h97.3ZM15.5 13.8c-.9 0-1.6.7-1.6 1.6v59.4l17.5-16.9c4.2-4 10.7-4 14.9 0l8.6 8.4 21.6-27.7a13 13 0 0 1 20.5 0l17.3 22.3V15.4c0-.9-.6-1.6-1.5-1.6H15.6Z" clip-rule="evenodd"/></svg>