<svg width="129" height="103" viewBox="0 0 129 103" fill="none" xmlns="http://www.w3.org/2000/svg">
<path d="M19.9765 24.3846C19.9765 19.6888 25.0128 16.7257 29.1 19.0167L46.618 28.8374C50.8043 31.1843 50.8043 37.2261 46.618 39.5731L29.1 49.3937C25.0128 51.6848 19.9765 48.7217 19.9765 44.0259V24.3846Z" fill="white"/>
<path fill-rule="evenodd" clip-rule="evenodd" d="M112.911 0C121.377 1.90161e-05 128.24 6.8828 128.24 15.3731V87.6269C128.24 95.9844 121.59 102.784 113.307 102.995L112.911 103H15.5693L15.1734 102.995C6.89021 102.784 0.23999 95.9845 0.23999 87.6269V15.3731C0.23999 6.88279 7.10317 3.09508e-07 15.5693 0H112.911ZM15.5693 13.8358C14.7227 13.8358 14.0364 14.5241 14.0364 15.3731V74.7691L31.5065 57.9112C35.6611 53.9021 42.2321 53.9021 46.3867 57.9112L55.0491 66.2704L76.5753 38.583C81.7921 31.8731 91.9095 31.8731 97.1262 38.583L114.444 60.8567V15.3731C114.444 14.5241 113.757 13.8358 112.911 13.8358H15.5693Z" fill="white"/>
</svg>
