<svg width="256" height="240" viewBox="0 0 256 240" fill="none" xmlns="http://www.w3.org/2000/svg">
<path d="M20 0.5H236C246.77 0.5 255.5 9.23045 255.5 20V220C255.5 230.601 247.04 239.226 236.504 239.493L235.993 239.5H20C9.56452 239.5 1.04385 231.303 0.525391 220.996L0.506836 220.504L0.5 219.993V20C0.5 9.23045 9.23045 0.5 20 0.5ZM19.5 72.5H8.5V93.5H19.5V146.5H9.5V167.5H19.5V220.5H236.5V167.5H246.5V146.5H236.5V93.5H246.5V72.5H236.5V19.5H19.5V72.5ZM38 181.5H54C55.933 181.5 57.5 183.067 57.5 185V201C57.5 202.933 55.933 204.5 54 204.5H38C36.067 204.5 34.5 202.933 34.5 201V185C34.5 183.067 36.067 181.5 38 181.5ZM245.5 147.5V166.5H236.5V147.5H245.5ZM235.5 147.5V166.5H20.5V147.5H235.5ZM19.5 147.5V166.5H10.5V147.5H19.5ZM38 108.5H54C55.933 108.5 57.5 110.067 57.5 112V128C57.5 129.933 55.933 131.5 54 131.5H38C36.067 131.5 34.5 129.933 34.5 128V112C34.5 110.067 36.067 108.5 38 108.5ZM245.5 73.5V92.5H236.5V73.5H245.5ZM235.5 73.5V92.5H20.5V73.5H235.5ZM19.5 73.5V92.5H9.5V73.5H19.5ZM38 34.5H54C55.933 34.5 57.5 36.067 57.5 38V54C57.5 55.933 55.933 57.5 54 57.5H38C36.067 57.5 34.5 55.933 34.5 54V38C34.5 36.067 36.067 34.5 38 34.5Z" fill="white" stroke="white"/>
</svg>
