<svg xmlns="http://www.w3.org/2000/svg" width="256" height="240" fill="none"><path fill="#fff" stroke="#fff" d="M20 1h216c11 0 20 8 20 19v200c0 11-9 19-19 19l-1 1H20c-10 0-19-9-19-19V20C1 9 9 1 20 1Zm0 72H9v21h11v53H10v21h10v53h217v-53h10v-21h-10V94h10V73h-10V20H20v53Zm18 109h16c2 0 4 1 4 3v16c0 2-2 4-4 4H38c-2 0-3-2-3-4v-16c0-2 1-3 3-3Zm208-34v19h-9v-19h9Zm-10 0v19H21v-19h215Zm-216 0v19h-9v-19h9Zm18-39h16c2 0 4 1 4 3v16c0 2-2 4-4 4H38c-2 0-3-2-3-4v-16c0-2 1-3 3-3Zm208-35v19h-9V74h9Zm-10 0v19H21V74h215ZM20 74v19H10V74h10Zm18-39h16c2 0 4 1 4 3v16c0 2-2 4-4 4H38c-2 0-3-2-3-4V38c0-2 1-3 3-3Z"/></svg>